<svg xmlns="http://www.w3.org/2000/svg" viewBox="0 0 320 100" role="img" aria-label="Smart Axiata">
  <!-- Globe/Circle icon representing connectivity -->
  <circle cx="50" cy="50" r="44" fill="#CC0000"/>
  <!-- White outer arc (C-shape, left side) -->
  <path d="M50,10 A40,40 0,1,0 50,90" fill="none" stroke="white" stroke-width="10" stroke-linecap="round"/>
  <!-- White inner arc -->
  <path d="M50,25 A25,25 0,1,0 50,75" fill="none" stroke="white" stroke-width="9" stroke-linecap="round"/>
  <!-- White center dot -->
  <circle cx="50" cy="50" r="7" fill="white"/>
  <!-- "smart" wordmark as paths (Lato Black, no font dependency) -->
  <!-- s -->
  <path d="M764 810Q752 791 738.5 783.0Q725 775 704 775Q682 775 660.0 784.5Q638 794 612.5 805.0Q587 816 555.0 825.5Q523 835 482 835Q423 835 391.5 812.5Q360 790 360 750Q360 721 380.5 702.0Q401 683 435.0 668.5Q469 654 512.0 641.0Q555 628 600.0 612.0Q645 596 688.0 574.5Q731 553 765.0 521.5Q799 490 819.5 445.0Q840 400 840 337Q840 260 812.0 195.0Q784 130 728.5 83.0Q673 36 591.5 10.0Q510 -16 404 -16Q351 -16 298.0 -6.0Q245 4 195.5 21.0Q146 38 104.0 61.5Q62 85 32 112L104 226Q116 246 134.5 257.5Q153 269 182 269Q209 269 230.5 257.0Q252 245 277.0 231.0Q302 217 335.5 205.0Q369 193 420 193Q456 193 481.0 200.5Q506 208 521.0 221.0Q536 234 543.0 250.0Q550 266 550 283Q550 314 529.0 334.0Q508 354 474.0 368.5Q440 383 396.5 395.5Q353 408 308.0 424.0Q263 440 219.5 462.5Q176 485 142.0 519.5Q108 554 87.0 604.0Q66 654 66 725Q66 791 91.5 850.5Q117 910 168.0 955.0Q219 1000 296.0 1026.5Q373 1053 476 1053Q532 1053 584.5 1043.0Q637 1033 683.0 1015.0Q729 997 767.0 972.5Q805 948 834 919Z" transform="translate(105.000,70) scale(0.02600,-0.02600)" fill="#CC0000"/>
  <!-- m -->
  <path d="M105 0V1037H297Q355 1037 373 985L390 929Q416 956 444.0 978.5Q472 1001 504.5 1017.5Q537 1034 574.5 1043.5Q612 1053 657 1053Q751 1053 812.5 1004.5Q874 956 906 875Q932 923 969.5 957.0Q1007 991 1050.5 1012.0Q1094 1033 1142.5 1043.0Q1191 1053 1239 1053Q1328 1053 1397.0 1026.5Q1466 1000 1512.5 949.5Q1559 899 1583.0 825.5Q1607 752 1607 659V0H1297V659Q1297 820 1159 820Q1096 820 1054.5 778.5Q1013 737 1013 659V0H703V659Q703 748 668.0 784.0Q633 820 565 820Q523 820 485.5 801.0Q448 782 415 750V0Z" transform="translate(128.166,70) scale(0.02600,-0.02600)" fill="#CC0000"/>
  <!-- a -->
  <path d="M640 422Q547 418 487.0 406.0Q427 394 392.0 376.0Q357 358 343.5 335.0Q330 312 330 285Q330 232 359.0 210.5Q388 189 444 189Q504 189 549.0 210.0Q594 231 640 278ZM82 893Q176 976 290.5 1016.5Q405 1057 536 1057Q630 1057 705.5 1026.5Q781 996 833.5 941.5Q886 887 914.0 812.0Q942 737 942 648V0H800Q756 0 733.5 12.0Q711 24 696 62L674 119Q635 86 599.0 61.0Q563 36 524.5 18.5Q486 1 442.5 -7.5Q399 -16 346 -16Q275 -16 217.0 2.5Q159 21 118.5 57.0Q78 93 56.0 146.5Q34 200 34 270Q34 326 62.0 383.5Q90 441 159.0 488.5Q228 536 345.0 568.0Q462 600 640 604V648Q640 739 602.5 779.5Q565 820 496 820Q441 820 406.0 808.0Q371 796 343.5 781.0Q316 766 290.0 754.0Q264 742 228 742Q196 742 174.0 758.0Q152 774 138 796Z" transform="translate(172.418,70) scale(0.02600,-0.02600)" fill="#CC0000"/>
  <!-- r -->
  <path d="M395 877Q443 961 505.5 1009.0Q568 1057 649 1057Q719 1057 763 1024L743 796Q738 774 726.5 766.0Q715 758 695 758Q687 758 674.0 759.0Q661 760 647.0 761.5Q633 763 618.5 764.5Q604 766 592 766Q524 766 483.5 730.0Q443 694 415 630V0H105V1037H289Q312 1037 327.5 1033.0Q343 1029 353.5 1020.5Q364 1012 369.5 998.0Q375 984 379 964Z" transform="translate(199.328,70) scale(0.02600,-0.02600)" fill="#CC0000"/>
  <!-- t -->
  <path d="M476 -16Q402 -16 345.5 5.5Q289 27 250.5 66.5Q212 106 192.0 162.0Q172 218 172 287V823H84Q60 823 43.0 838.5Q26 854 26 884V1005L191 1037L252 1290Q264 1338 320 1338H482V1035H739V823H482V308Q482 272 499.5 248.5Q517 225 550 225Q567 225 578.5 228.5Q590 232 598.5 236.5Q607 241 614.5 244.5Q622 248 632 248Q646 248 654.5 241.5Q663 235 672 221L766 74Q706 29 631.0 6.5Q556 -16 476 -16Z" transform="translate(219.166,70) scale(0.02600,-0.02600)" fill="#CC0000"/>
</svg>
